<svg width="64" height="79" viewBox="0 0 64 79" fill="none" xmlns="http://www.w3.org/2000/svg">
<path fill-rule="evenodd" clip-rule="evenodd" d="M6.71015 39.7759C10.076 38.6656 15.5777 38.0081 19.8288 38.8194L23.5362 39.7759C29.8074 33.9571 35.9627 28.4487 42.7864 23.1054L45.3531 20.0992C49.4319 16.8966 53.3265 13.3752 57.4736 10.3975C57.4112 7.88386 55.2575 7.43977 53.9088 6.16158C49.3665 1.85162 39.8633 -0.180958 30.5233 0.0126205L24.9562 0.832483L17.1136 3.42871C10.6077 6.42917 4.82076 11.1291 1.99859 17.6396C-1.42664 25.5621 0.851911 36.3427 6.71015 39.7759ZM60.6107 38.4094C64.6241 30.9254 62.5565 24.432 61.3237 16.1366H60.7533L53.0532 21.4742C47.0137 25.8297 40.701 31.2784 35.9479 36.9064C33.9307 39.3005 30.5352 41.3017 29.1152 44.1485C28.6785 44.8829 29.4123 47.0749 29.2578 48.1111L27.8319 51.8119C24.267 57.4456 10.5513 59.7828 5.72982 53.4516C4.77919 52.2019 3.75726 50.5878 3.30571 48.9424C2.52144 46.0757 3.14233 43.1777 1.3094 41.427V41.1423C-1.60783 43.8097 1.08659 55.0913 2.30756 56.8563C7.47362 57.6676 9.91851 57.2008 11.1484 61.7755L12.1465 60.819H12.7169C13.2754 62.9512 12.6278 65.7638 12.2891 68.1977C13.2249 68.8468 14.3686 68.545 14.8558 69.7008C15.5034 69.5101 15.8213 69.1485 16.567 69.4161C17.066 69.7777 17.3364 70.4495 17.4225 71.1925H17.5651C18.0761 70.6858 18.1593 70.0538 18.8485 69.6894H19.704C20.3724 70.0709 20.7111 71.0103 20.8448 71.8757H20.9874C21.9439 70.6858 21.3944 69.4361 23.6967 69.4161C24.5362 70.3956 25.0788 71.5773 25.2652 72.8322C25.9782 72.4764 26.5753 70.5548 26.8337 69.8261C27.3566 69.5129 27.7041 69.3934 28.6874 69.4161C29.4162 70.4127 29.9423 71.5321 30.2382 72.7155H30.3808C31.4086 71.0587 30.9452 69.2994 33.5178 69.4361C34.2278 70.5036 35.2379 72.1376 35.0863 73.5354H35.229L36.3697 69.9827C36.9638 69.5813 37.2164 69.4133 38.366 69.4361C38.8859 70.1421 39.6375 71.2978 39.5068 72.1689C40.2792 71.4402 40.0623 70.2559 41.0753 69.7094H41.9309C42.525 70.0367 42.8429 70.6829 42.929 71.4857H43.0776L43.7905 69.5727C44.9788 69.0375 46.6751 68.7187 48.0684 68.4796L48.3654 68.0696C48.0684 66.0769 46.3958 65.9972 46.2265 63.8337L46.6543 63.549C47.7 63.865 47.495 64.645 48.508 65.0521H48.6506C49.215 63.9305 49.2121 62.5555 49.934 61.636C52.4353 58.459 58.1866 59.3899 61.6267 56.8535C66.4778 53.2723 62.7318 42.1216 60.6047 38.4094H60.6107ZM35.5141 63.1419C31.5334 63.9419 33.2445 61.0638 32.0919 59.0426C31.92 58.7932 31.6706 58.602 31.3789 58.496C29.2994 58.8063 30.3213 62.8174 29.6678 64.3717L29.0974 64.6564C27.8883 64.6137 26.7565 64.1497 26.2455 63.4266C25.4642 62.2481 27.8735 57.9694 28.6696 57.0044C29.2935 56.2528 30.3748 56.0365 31.2363 55.5013C33.7377 55.971 36.6133 60.54 35.5141 63.1419ZM57.7588 49.7622C55.2337 53.463 48.9685 55.5013 42.7864 54.8181L42.6438 55.1027C43.3301 55.6294 43.7697 55.8087 43.9272 56.8791L43.7846 57.0157C39.8484 55.8941 33.6574 48.3133 34.8012 42.9415L35.3715 42.6568L35.6686 42.7934C35.9191 43.8189 36.0191 44.8729 35.9657 45.9248C42.1358 48.1595 47.5009 44.6438 51.9362 42.7934L56.0714 41.427L57.0696 41.5636C59.2798 42.8247 59.0778 47.8179 57.7588 49.7509V49.7622ZM20.6844 52.6318L20.8269 49.079L24.2492 48.7943C25.0186 47.4621 24.7245 44.3791 24.677 42.3721C21.8221 41.4156 16.7214 41.9252 13.1269 41.9622C11.4425 43.0468 11.7514 45.663 11.8435 48.3844L11.9861 48.6691L16.1214 49.079L20.6844 52.6318ZM10.2869 43.8866L7.57759 44.0232L6.86461 44.7064L6.56754 50.4455L6.71015 50.7301C7.86583 51.0583 9.0711 51.1969 10.275 51.1401L10.4176 54.6928H10.5602C12.3426 53.668 13.8072 51.3137 16.1214 50.992C15.3698 50.138 13.0437 50.2747 11.7009 50.0355C9.85315 47.8635 11.3266 46.6251 10.275 43.8752L10.2869 43.8866ZM12.8536 74.3467L13.2814 75.0299H13.7091C13.8161 73.635 14.6746 71.9668 14.0062 70.9306C13.3883 71.8615 13.2071 73.1027 12.8417 74.3467H12.8536ZM46.9335 71.0673C46.3721 72.6187 47.0969 73.2621 47.2306 75.0299L47.6584 74.8933C47.9555 73.598 47.7267 72.4508 47.3613 71.1925L46.9335 71.0673ZM14.9806 75.9864C15.444 76.2882 15.5153 76.4362 16.2639 76.533H16.4065C17.0363 75.3203 17.0244 72.5077 16.2639 71.4772C15.45 72.6159 14.9241 73.9823 14.9806 75.9864ZM28.0993 71.6138C26.8248 72.8465 26.0792 75.363 26.1029 77.7628C29.8936 82.0073 30.4075 74.1389 28.6696 72.0238C28.4201 71.7021 28.5211 71.7903 28.0993 71.6138ZM32.8048 71.6138C31.5809 73.2194 31.1472 75.2292 31.2363 78.1613C32.3474 78.8474 33.9367 78.9015 34.5041 77.6148C35.2795 75.8726 34.0941 72.5533 33.0782 71.6024L32.8048 71.6138ZM37.7956 71.6138C36.4558 72.9404 36.4885 75.0755 35.9419 77.2162C36.6341 77.8567 37.3708 78.1756 38.6512 77.8994C39.5989 76.1914 38.8324 73.4585 38.3541 71.8871L37.7956 71.6138ZM44.6283 71.6138C44.251 72.9205 44.4589 75.363 43.9153 76.3963C46.8771 77.0255 46.179 72.1889 44.6402 71.6138H44.6283ZM22.9421 71.7505C22.2707 72.7696 20.9844 75.7046 21.8013 77.4895L22.0984 77.8994C22.8121 78.0265 23.5476 77.9795 24.2373 77.7628C25.3306 76.0348 24.1957 73.7318 23.8095 71.8871L22.9421 71.7505ZM19.2346 71.8871C18.4266 73.339 18.0285 75.2007 17.9513 77.0796L19.2346 77.6261C21.2726 76.7209 20.3576 73.951 19.805 72.1604L19.2346 71.8871ZM41.4793 71.8871C40.8852 73.003 39.994 75.0043 40.4812 76.6696C40.3475 77.2959 40.8198 77.4098 41.4793 77.6261L42.3349 77.3415C43.1459 76.1316 43.0063 72.4992 41.5031 71.8871H41.4793Z" fill="white"/>
</svg>
