<svg width="36" height="45" viewBox="0 0 36 45" fill="none" xmlns="http://www.w3.org/2000/svg">
<path fill-rule="evenodd" clip-rule="evenodd" d="M3.77446 22.6571C5.66773 22.0247 8.76246 21.6502 11.1537 22.1123L13.2391 22.6571C16.7667 19.3427 20.229 16.205 24.0674 13.1613L25.5111 11.4489C27.8054 9.62467 29.9962 7.6188 32.3289 5.92264C32.2938 4.49081 31.0823 4.23784 30.3237 3.50976C27.7687 1.05472 22.4231 -0.103077 17.1694 0.00718887L14.0379 0.474199L9.62638 1.95306C5.96684 3.66219 2.71168 6.33939 1.12421 10.0479C-0.802483 14.5607 0.4792 20.7015 3.77446 22.6571ZM34.0935 21.8788C36.3511 17.6157 35.188 13.9169 34.4946 9.19171H34.1737L29.8424 12.2321C26.4452 14.7131 22.8943 17.8168 20.2207 21.0226C19.086 22.3864 17.1761 23.5263 16.3773 25.1479C16.1317 25.5662 16.5444 26.8148 16.4575 27.4051L15.6554 29.5131C13.6502 32.7222 5.93509 34.0535 3.22302 30.4471C2.6883 29.7353 2.11346 28.8158 1.85946 27.8786C1.41831 26.2457 1.76756 24.5949 0.736539 23.5977V23.4355C-0.904407 24.9549 0.611209 31.3811 1.298 32.3865C4.20391 32.8487 5.57916 32.5827 6.27097 35.1886L6.83243 34.6437H7.15326C7.46742 35.8583 7.10313 37.4604 6.91264 38.8468C7.43901 39.2165 8.08235 39.0446 8.3564 39.703C8.72069 39.5943 8.89949 39.3884 9.31891 39.5408C9.59965 39.7468 9.75171 40.1295 9.80017 40.5527H9.88038C10.1678 40.2641 10.2146 39.9041 10.6023 39.6965H11.0835C11.4595 39.9138 11.65 40.4489 11.7252 40.9419H11.8054C12.3435 40.2641 12.0343 39.5522 13.3294 39.5408C13.8016 40.0988 14.1068 40.7719 14.2117 41.4867C14.6127 41.284 14.9486 40.1895 15.094 39.7743C15.3881 39.596 15.5836 39.5279 16.1367 39.5408C16.5466 40.1085 16.8425 40.7461 17.009 41.4202H17.0892C17.6673 40.4765 17.4067 39.4743 18.8538 39.5522C19.2532 40.1603 19.8213 41.0911 19.7361 41.8872H19.8163L20.458 39.8635C20.7922 39.6349 20.9342 39.5392 21.5809 39.5522C21.8733 39.9543 22.2961 40.6127 22.2226 41.1089C22.657 40.6938 22.535 40.0192 23.1049 39.7079H23.5861C23.9203 39.8943 24.0991 40.2624 24.1476 40.7197H24.2311L24.6322 39.63C25.3006 39.3252 26.2547 39.1436 27.0384 39.0073L27.2056 38.7738C27.0384 37.6387 26.0977 37.5933 26.0024 36.361L26.243 36.1988C26.8312 36.3788 26.7159 36.8231 27.2858 37.055H27.366C27.6835 36.4161 27.6818 35.6329 28.0879 35.1091C29.4949 33.2995 32.7299 33.8297 34.665 32.3849C37.3938 30.345 35.2866 23.9933 34.0902 21.8788H34.0935ZM19.9767 35.9669C17.7375 36.4226 18.7 34.7832 18.0517 33.6319C17.955 33.4898 17.8147 33.3809 17.6506 33.3205C16.4809 33.4973 17.0557 35.7821 16.6881 36.6674L16.3673 36.8296C15.6872 36.8053 15.0505 36.541 14.7631 36.1291C14.3236 35.4577 15.6788 33.0205 16.1267 32.4708C16.4776 32.0427 17.0858 31.9195 17.5704 31.6147C18.9774 31.8822 20.595 34.4848 19.9767 35.9669ZM32.4893 28.3456C31.069 30.4536 27.5448 31.6147 24.0674 31.2255L23.9872 31.3876C24.3732 31.6876 24.6205 31.7898 24.709 32.3995L24.6288 32.4773C22.4147 31.8384 18.9323 27.5202 19.5757 24.4603L19.8965 24.2982L20.0636 24.376C20.2045 24.9601 20.2607 25.5605 20.2307 26.1597C23.7014 27.4326 26.7193 25.43 29.2141 24.376L31.5402 23.5977L32.1017 23.6755C33.3449 24.3938 33.2313 27.2381 32.4893 28.3391V28.3456ZM11.635 29.9801L11.7152 27.9564L13.6402 27.7942C14.073 27.0354 13.9075 25.2792 13.8808 24.136C12.275 23.5912 9.4058 23.8814 7.38387 23.9025C6.4364 24.5203 6.61018 26.0105 6.66198 27.5608L6.7422 27.7229L9.06826 27.9564L11.635 29.9801ZM5.78637 24.9987L4.26239 25.0765L3.86135 25.4657L3.69424 28.7348L3.77446 28.8969C4.42453 29.0839 5.10249 29.1628 5.77969 29.1304L5.85989 31.1541H5.9401C6.94271 30.5704 7.76653 29.2293 9.06826 29.0461C8.64549 28.5596 7.33708 28.6375 6.58178 28.5013C5.5424 27.264 6.37123 26.5586 5.77969 24.9922L5.78637 24.9987ZM7.23013 42.3494L7.47076 42.7386H7.71139C7.77155 41.944 8.25447 40.9938 7.87849 40.4035C7.53092 40.9338 7.42898 41.6408 7.22344 42.3494H7.23013ZM26.4001 40.4813C26.0843 41.3651 26.492 41.7316 26.5672 42.7386L26.8078 42.6607C26.9749 41.9229 26.8463 41.2694 26.6407 40.5527L26.4001 40.4813ZM8.42658 43.2834C8.68726 43.4553 8.72737 43.5396 9.14847 43.5947H9.22867C9.58293 42.904 9.57625 41.3019 9.14847 40.7149C8.69061 41.3635 8.39483 42.1418 8.42658 43.2834ZM15.8058 40.7927C15.089 41.4948 14.6695 42.9283 14.6829 44.2953C16.8151 46.713 17.1042 42.231 16.1267 41.0262C15.9863 40.843 16.0431 40.8932 15.8058 40.7927ZM18.4527 40.7927C17.7643 41.7072 17.5203 42.8521 17.5704 44.5223C18.1954 44.9131 19.0894 44.9439 19.4086 44.2109C19.8447 43.2185 19.178 41.3278 18.6065 40.7862L18.4527 40.7927ZM21.26 40.7927C20.5064 41.5483 20.5248 42.7645 20.2173 43.9839C20.6067 44.3488 21.0211 44.5304 21.7413 44.3731C22.2744 43.4002 21.8432 41.8435 21.5742 40.9484L21.26 40.7927ZM25.1034 40.7927C24.8912 41.537 25.0082 42.9283 24.7024 43.5169C26.3684 43.8753 25.9757 41.1202 25.1101 40.7927H25.1034ZM12.9049 40.8705C12.5273 41.451 11.8037 43.1229 12.2633 44.1396L12.4304 44.3731C12.8318 44.4455 13.2455 44.4187 13.6335 44.2953C14.2484 43.311 13.6101 41.9991 13.3929 40.9484L12.9049 40.8705ZM10.8195 40.9484C10.365 41.7754 10.1411 42.8359 10.0976 43.9061L10.8195 44.2174C11.9658 43.7018 11.4511 42.124 11.1403 41.104L10.8195 40.9484ZM23.3321 40.9484C22.9979 41.584 22.4966 42.724 22.7707 43.6726C22.6955 44.0293 22.9612 44.0942 23.3321 44.2174L23.8134 44.0553C24.2696 43.3661 24.191 41.297 23.3455 40.9484H23.3321Z" fill="#1D1624"/>
</svg>
